# xmcd
#
# Track frame offsets:
#	183
#	12538
#	25678
#	45055
#	56030
#	66118
#	85545
#	99178
#	120530
#	136623
#	162910
#	185700
#	200735
#	216145
#	239198
#	247435
#	260253
#	283213
#	311938
#
# Disc length: 4319 seconds
#
# Revision: 0
# Processed by: cddbd v1.5.2PL0 Copyright (c) Steve Scherf et al.
# Submitted via: EasyCDDAExtractor 16.0.8.2
#
DISCID=1610dd13
DTITLE=Συλλογικός δίσκος - The Classic Experience 2.1
DYEAR=1990
DGENRE=Κλασική
TTITLE0=Χορωδία - O Fortuna From 'Carmina Burana' [Orff]
TTITLE1=Άνευ ερμηνευτού - Scene From 'Swan Lake' [Tchaikovsky]
TTITLE2=Mady Mesple-Danielle Millet - Flower Duet From 'Lakme' [Delibes]
TTITLE3=Χορωδία - In The Hall Of The Mountain King From  Peer Gynt [Grieg]
TTITLE4=Άνευ ερμηνευτού - Overture From 'Carmen' [Bizet]
TTITLE5=Κάλλας Μαρία - Chanson Boheme From 'Carmen' [Bizet]
TTITLE6=Άνευ ερμηνευτού - Rondo From 'Eine Kleine Nachtmusik' [Mozart]
TTITLE7=Tito Gobbi - Largo Al Factorum From 'The Barber Of Seville' [Rossini]
TTITLE8=Άνευ ερμηνευτού - Rondo From 'Horn Concerto No 4' [Mozart]
TTITLE9=Άνευ ερμηνευτού - Adagio [Albinoni]
TTITLE10=Άνευ ερμηνευτού - Waltz Of The Flowers From The Nutcracker[Tchaikovsk
TTITLE10=y]
TTITLE11=Άνευ ερμηνευτού - Fur Elise [Beethoven]
TTITLE12=Άνευ ερμηνευτού - Cello Concerto First Movement [Elgar]
TTITLE13=Άνευ ερμηνευτού - Pavane [Faure]
TTITLE14=Άνευ ερμηνευτού - Pizzicati From 'Sylvia' [Delibes]
TTITLE15=Άνευ ερμηνευτού - Gymnopodie No 3 [Satie]
TTITLE16=Jose Carreras - Nessun Dorma From 'Turandot' [Puccini]
TTITLE17=Άνευ ερμηνευτού - Adagio For Strings [Barber]
TTITLE18=Montserrat Caballe - O Mio Babbino From 'Gianni Schicchi' [Puccini]
EXTD=
EXTT0=
EXTT1=
EXTT2=
EXTT3=
EXTT4=
EXTT5=
EXTT6=
EXTT7=
EXTT8=
EXTT9=
EXTT10=
EXTT11=
EXTT12=
EXTT13=
EXTT14=
EXTT15=
EXTT16=
EXTT17=
EXTT18=
PLAYORDER=
